<?xml version="1.0" standalone="no"?>
<!DOCTYPE svg PUBLIC "-//W3C//DTD SVG 20010904//EN"
 "http://www.w3.org/TR/2001/REC-SVG-20010904/DTD/svg10.dtd">
<svg version="1.0" xmlns="http://www.w3.org/2000/svg"
 width="135" height="45" viewBox="0 0 256.000000 82.000000"
 preserveAspectRatio="xMidYMid meet">

<g transform="translate(0.000000,82.000000) scale(0.100000,-0.100000)"
fill="#000000" stroke="none">
<path d="M2237 726 c-73 -27 -97 -66 -97 -157 0 -86 26 -134 111 -210 77 -68
99 -102 99 -149 0 -51 -25 -30 -28 23 l-3 47 -90 0 -89 0 0 -67 c0 -125 52
-168 205 -167 166 0 223 65 195 225 -15 87 -43 133 -116 193 -63 52 -94 92
-94 120 0 9 7 16 15 16 10 0 15 -11 15 -35 l0 -35 91 0 91 0 -4 55 c-5 63 -28
100 -78 129 -43 25 -169 32 -223 12z"/>
<path d="M155 718 c-4 -13 -99 -546 -111 -626 l-7 -43 104 3 104 3 3 38 c3 30
7 37 20 35 12 -2 18 -15 20 -41 l3 -37 99 0 c54 0 101 3 103 8 3 6 -35 232
-94 555 l-21 117 -109 0 c-79 0 -111 -4 -114 -12z m121 -475 c-16 -16 -21 21
-17 132 l5 120 9 -123 c5 -67 7 -126 3 -129z"/>
<path d="M515 719 c-3 -8 -4 -160 -3 -339 l3 -325 145 1 c173 1 210 7 250 40
l30 26 0 111 c0 100 -2 113 -22 134 -21 22 -21 23 -2 44 16 17 20 39 22 123 3
119 -6 142 -63 171 -33 16 -67 20 -197 23 -128 4 -159 2 -163 -9z m223 -200
c-2 -41 -7 -74 -13 -74 -11 0 -20 129 -10 153 13 35 26 -9 23 -79z m0 -259
c-4 -107 -22 -108 -26 -2 -2 69 0 82 13 82 13 0 15 -13 13 -80z"/>
<path d="M972 393 l3 -338 100 0 100 0 3 338 2 337 -105 0 -105 0 2 -337z"/>
<path d="M1210 390 l0 -343 143 6 c154 6 197 16 241 56 51 46 56 73 56 284 0
183 -1 196 -23 238 -17 32 -37 50 -72 69 -45 23 -63 25 -197 29 l-148 3 0
-342z m225 0 c0 -122 -3 -164 -12 -168 -10 -3 -13 35 -13 168 0 133 3 171 13
168 9 -4 12 -46 12 -168z"/>
<path d="M1761 613 c-72 -396 -98 -549 -94 -555 2 -5 49 -8 104 -8 98 0 99 0
99 24 0 63 37 79 42 19 l3 -38 103 -3 c78 -2 102 0 102 10 0 10 -75 441 -108
623 l-8 40 -111 3 -111 3 -21 -118z m140 -248 c1 -81 -2 -120 -10 -123 -7 -2
-11 18 -11 61 0 66 11 190 16 184 2 -1 4 -56 5 -122z"/>
</g>
</svg>
